<svg width="1187" height="225" viewBox="0 0 1187 225" fill="none" xmlns="http://www.w3.org/2000/svg">
<path d="M85.8 19.8H86.62C86.6733 20.0133 86.72 20.2733 86.76 20.58C86.8133 20.8733 86.8533 21.1933 86.88 21.54C86.92 21.8733 86.9467 22.2067 86.96 22.54C86.9733 22.8733 86.98 23.1733 86.98 23.44C86.5133 23.7333 85.9267 23.94 85.22 24.06C84.5267 24.18 83.8133 24.24 83.08 24.24C81.9733 24.24 80.9667 24.1067 80.06 23.84C79.1667 23.56 78.4 23.1267 77.76 22.54C77.1333 21.94 76.6467 21.1867 76.3 20.28C75.9533 19.36 75.78 18.26 75.78 16.98C75.78 15.7133 75.9667 14.6267 76.34 13.72C76.7267 12.8 77.24 12.0467 77.88 11.46C78.52 10.8733 79.26 10.4467 80.1 10.18C80.9533 9.9 81.8467 9.76 82.78 9.76C83.66 9.76 84.4533 9.82667 85.16 9.96C85.88 10.08 86.4667 10.2467 86.92 10.46C86.92 10.6733 86.9067 10.9467 86.88 11.28C86.8667 11.6133 86.8333 11.9667 86.78 12.34C86.74 12.7 86.6867 13.06 86.62 13.42C86.5667 13.7667 86.5133 14.06 86.46 14.3H85.62L84.52 11.28C84.4 11.2133 84.2067 11.16 83.94 11.12C83.6733 11.08 83.4 11.06 83.12 11.06C82.5733 11.06 82.06 11.1733 81.58 11.4C81.1 11.6133 80.6733 11.96 80.3 12.44C79.9267 12.92 79.6333 13.54 79.42 14.3C79.2067 15.0467 79.1 15.9467 79.1 17C79.1 18.9067 79.48 20.3733 80.24 21.4C81 22.4267 82.0333 22.94 83.34 22.94C83.7133 22.94 84.0267 22.9133 84.28 22.86C84.5467 22.7933 84.7267 22.7067 84.82 22.6L85.8 19.8ZM97.4469 21.1C97.4469 21.3933 97.4469 21.6467 97.4469 21.86C97.4602 22.0733 97.4802 22.3 97.5069 22.54L98.8869 22.74V23.44C98.7269 23.52 98.5069 23.6 98.2269 23.68C97.9602 23.76 97.6735 23.84 97.3669 23.92C97.0735 23.9867 96.7802 24.04 96.4869 24.08C96.1935 24.1333 95.9335 24.1733 95.7069 24.2H95.0269C94.8935 23.8933 94.8135 23.5867 94.7869 23.28C94.7602 22.9733 94.7402 22.6 94.7269 22.16H94.6269C94.5602 22.4267 94.4469 22.6867 94.2869 22.94C94.1269 23.18 93.9202 23.4 93.6669 23.6C93.4269 23.7867 93.1402 23.94 92.8069 24.06C92.4735 24.18 92.1002 24.24 91.6869 24.24C91.2469 24.24 90.8402 24.1733 90.4669 24.04C90.0935 23.9067 89.7669 23.72 89.4869 23.48C89.2069 23.24 88.9869 22.9533 88.8269 22.62C88.6669 22.2733 88.5869 21.8867 88.5869 21.46C88.5869 20.86 88.7002 20.3667 88.9269 19.98C89.1535 19.5933 89.5069 19.28 89.9869 19.04C90.4802 18.7867 91.1069 18.6 91.8669 18.48C92.6402 18.36 93.5735 18.2733 94.6669 18.22C94.7735 17.0733 94.7269 16.2333 94.5269 15.7C94.3269 15.1667 93.8935 14.9 93.2269 14.9C92.8135 14.9 92.4335 14.9667 92.0869 15.1L91.1469 17.5H90.2669C90.1602 17.34 90.0535 17.16 89.9469 16.96C89.8535 16.7467 89.7602 16.5267 89.6669 16.3C89.5869 16.06 89.5135 15.82 89.4469 15.58C89.3935 15.34 89.3535 15.1067 89.3269 14.88C89.8335 14.5333 90.4869 14.26 91.2869 14.06C92.0869 13.86 92.9335 13.76 93.8269 13.76C94.5869 13.76 95.2069 13.8467 95.6869 14.02C96.1669 14.18 96.5402 14.4067 96.8069 14.7C97.0869 14.98 97.2802 15.3133 97.3869 15.7C97.4935 16.0867 97.5469 16.5 97.5469 16.94C97.5469 17.74 97.5269 18.4667 97.4869 19.12C97.4602 19.76 97.4469 20.42 97.4469 21.1ZM92.9469 22.64C93.2269 22.64 93.4669 22.5867 93.6669 22.48C93.8669 22.3733 94.0335 22.2467 94.1669 22.1C94.3135 21.9533 94.4202 21.7933 94.4869 21.62C94.5669 21.4467 94.6269 21.2933 94.6669 21.16V19.16C94.0402 19.1733 93.5269 19.2133 93.1269 19.28C92.7269 19.3467 92.4135 19.46 92.1869 19.62C91.9602 19.7667 91.8002 19.96 91.7069 20.2C91.6269 20.4267 91.5869 20.7067 91.5869 21.04C91.5869 21.5467 91.7069 21.94 91.9469 22.22C92.1869 22.5 92.5202 22.64 92.9469 22.64ZM109.8 28H104.36V27.22C104.733 27.0067 105.173 26.8467 105.68 26.74V23.58C105.52 23.78 105.273 23.94 104.94 24.06C104.606 24.18 104.273 24.24 103.94 24.24C103.326 24.24 102.76 24.1467 102.24 23.96C101.733 23.76 101.293 23.46 100.92 23.06C100.546 22.66 100.253 22.1533 100.04 21.54C99.8397 20.9267 99.7397 20.2 99.7397 19.36C99.7397 18.4 99.8464 17.5733 100.06 16.88C100.273 16.1733 100.573 15.5933 100.96 15.14C101.346 14.6733 101.806 14.3267 102.34 14.1C102.886 13.8733 103.493 13.76 104.16 13.76C104.493 13.76 104.8 13.8133 105.08 13.92C105.36 14.0133 105.56 14.14 105.68 14.3V10.62L104.16 10.46V9.68C104.346 9.6 104.6 9.52 104.92 9.44C105.24 9.36 105.573 9.28667 105.92 9.22C106.28 9.15333 106.626 9.1 106.96 9.06C107.293 9.00667 107.573 8.97333 107.8 8.96H108.48V14.42C108.666 14.22 108.926 14.06 109.26 13.94C109.606 13.82 109.966 13.76 110.34 13.76C110.94 13.76 111.486 13.8533 111.98 14.04C112.486 14.2267 112.92 14.5133 113.28 14.9C113.64 15.2867 113.92 15.7733 114.12 16.36C114.32 16.9333 114.42 17.6133 114.42 18.4C114.42 19.4133 114.306 20.2867 114.08 21.02C113.866 21.7533 113.566 22.36 113.18 22.84C112.793 23.32 112.333 23.6733 111.8 23.9C111.266 24.1267 110.693 24.24 110.08 24.24C109.786 24.24 109.486 24.1933 109.18 24.1C108.873 24.02 108.64 23.8933 108.48 23.72V26.74C108.973 26.82 109.413 26.98 109.8 27.22V28ZM104.64 22.98C104.866 22.98 105.066 22.9533 105.24 22.9C105.413 22.8333 105.593 22.7067 105.78 22.52V15.36C105.62 15.2533 105.453 15.1733 105.28 15.12C105.106 15.0533 104.886 15.02 104.62 15.02C104.353 15.02 104.106 15.08 103.88 15.2C103.653 15.32 103.453 15.52 103.28 15.8C103.106 16.0667 102.973 16.4267 102.88 16.88C102.786 17.3333 102.74 17.9 102.74 18.58C102.74 19.4867 102.786 20.2267 102.88 20.8C102.973 21.36 103.1 21.8067 103.26 22.14C103.433 22.46 103.633 22.68 103.86 22.8C104.1 22.92 104.36 22.98 104.64 22.98ZM109.5 15.02C109.273 15.02 109.073 15.0533 108.9 15.12C108.74 15.1733 108.566 15.28 108.38 15.44V22.62C108.54 22.7533 108.706 22.8467 108.88 22.9C109.053 22.9533 109.273 22.98 109.54 22.98C109.78 22.98 110.013 22.92 110.24 22.8C110.466 22.68 110.666 22.4733 110.84 22.18C111.013 21.8733 111.153 21.4733 111.26 20.98C111.366 20.4867 111.42 19.86 111.42 19.1C111.42 18.2867 111.373 17.6133 111.28 17.08C111.2 16.5467 111.08 16.1333 110.92 15.84C110.76 15.5333 110.56 15.32 110.32 15.2C110.08 15.08 109.806 15.02 109.5 15.02ZM124.4 21.1C124.4 21.3933 124.4 21.6467 124.4 21.86C124.413 22.0733 124.433 22.3 124.46 22.54L125.84 22.74V23.44C125.68 23.52 125.46 23.6 125.18 23.68C124.913 23.76 124.627 23.84 124.32 23.92C124.027 23.9867 123.733 24.04 123.44 24.08C123.147 24.1333 122.887 24.1733 122.66 24.2H121.98C121.847 23.8933 121.767 23.5867 121.74 23.28C121.713 22.9733 121.693 22.6 121.68 22.16H121.58C121.513 22.4267 121.4 22.6867 121.24 22.94C121.08 23.18 120.873 23.4 120.62 23.6C120.38 23.7867 120.093 23.94 119.76 24.06C119.427 24.18 119.053 24.24 118.64 24.24C118.2 24.24 117.793 24.1733 117.42 24.04C117.047 23.9067 116.72 23.72 116.44 23.48C116.16 23.24 115.94 22.9533 115.78 22.62C115.62 22.2733 115.54 21.8867 115.54 21.46C115.54 20.86 115.653 20.3667 115.88 19.98C116.107 19.5933 116.46 19.28 116.94 19.04C117.433 18.7867 118.06 18.6 118.82 18.48C119.593 18.36 120.527 18.2733 121.62 18.22C121.727 17.0733 121.68 16.2333 121.48 15.7C121.28 15.1667 120.847 14.9 120.18 14.9C119.767 14.9 119.387 14.9667 119.04 15.1L118.1 17.5H117.22C117.113 17.34 117.007 17.16 116.9 16.96C116.807 16.7467 116.713 16.5267 116.62 16.3C116.54 16.06 116.467 15.82 116.4 15.58C116.347 15.34 116.307 15.1067 116.28 14.88C116.787 14.5333 117.44 14.26 118.24 14.06C119.04 13.86 119.887 13.76 120.78 13.76C121.54 13.76 122.16 13.8467 122.64 14.02C123.12 14.18 123.493 14.4067 123.76 14.7C124.04 14.98 124.233 15.3133 124.34 15.7C124.447 16.0867 124.5 16.5 124.5 16.94C124.5 17.74 124.48 18.4667 124.44 19.12C124.413 19.76 124.4 20.42 124.4 21.1ZM119.9 22.64C120.18 22.64 120.42 22.5867 120.62 22.48C120.82 22.3733 120.987 22.2467 121.12 22.1C121.267 21.9533 121.373 21.7933 121.44 21.62C121.52 21.4467 121.58 21.2933 121.62 21.16V19.16C120.993 19.1733 120.48 19.2133 120.08 19.28C119.68 19.3467 119.367 19.46 119.14 19.62C118.913 19.7667 118.753 19.96 118.66 20.2C118.58 20.4267 118.54 20.7067 118.54 21.04C118.54 21.5467 118.66 21.94 118.9 22.22C119.14 22.5 119.473 22.64 119.9 22.64ZM132.073 28H126.553V27.22C127.006 27.0067 127.446 26.8467 127.873 26.74V15.42L126.553 15.26V14.48C126.766 14.3867 127.026 14.3 127.333 14.22C127.653 14.14 127.979 14.0733 128.313 14.02C128.646 13.9533 128.966 13.9 129.273 13.86C129.593 13.82 129.859 13.7867 130.073 13.76H130.753V16H130.773C130.999 15.36 131.353 14.8267 131.833 14.4C132.326 13.9733 133.006 13.76 133.873 13.76C134.459 13.76 134.986 13.86 135.453 14.06C135.933 14.2467 136.333 14.5467 136.653 14.96C136.986 15.36 137.239 15.88 137.413 16.52C137.599 17.1467 137.693 17.9 137.693 18.78C137.693 19.62 137.573 20.38 137.333 21.06C137.106 21.74 136.773 22.3133 136.333 22.78C135.906 23.2467 135.379 23.6067 134.753 23.86C134.139 24.1133 133.439 24.24 132.653 24.24C132.199 24.24 131.839 24.2067 131.573 24.14C131.319 24.0867 131.046 23.9867 130.753 23.84V26.74C130.966 26.7667 131.179 26.8133 131.393 26.88C131.606 26.96 131.833 27.0733 132.073 27.22V28ZM132.713 15.36C132.259 15.36 131.853 15.52 131.493 15.84C131.146 16.16 130.899 16.6533 130.753 17.32V22.64C130.966 22.8 131.193 22.92 131.433 23C131.673 23.0667 131.986 23.1 132.373 23.1C133.133 23.1 133.693 22.7333 134.053 22C134.413 21.2667 134.593 20.1933 134.593 18.78C134.593 17.6867 134.453 16.8467 134.173 16.26C133.906 15.66 133.419 15.36 132.713 15.36ZM144.46 24H138.94V23.22C139.14 23.1133 139.347 23.0267 139.56 22.96C139.774 22.88 140.007 22.8067 140.26 22.74V15.42L138.94 15.26V14.48C139.14 14.4 139.387 14.32 139.68 14.24C139.987 14.16 140.307 14.0933 140.64 14.04C140.974 13.9733 141.3 13.92 141.62 13.88C141.94 13.8267 142.22 13.7867 142.46 13.76H143.14V22.74C143.407 22.8067 143.647 22.88 143.86 22.96C144.074 23.0267 144.274 23.1133 144.46 23.22V24ZM139.92 10.72C139.92 10.2533 140.08 9.88667 140.4 9.62C140.72 9.35333 141.134 9.22 141.64 9.22C142.147 9.22 142.56 9.35333 142.88 9.62C143.2 9.88667 143.36 10.2533 143.36 10.72C143.36 11.1733 143.2 11.5333 142.88 11.8C142.56 12.0667 142.147 12.2 141.64 12.2C141.134 12.2 140.72 12.0667 140.4 11.8C140.08 11.5333 139.92 11.1733 139.92 10.72Z" fill="white"/>
<path d="M81.2139 35.2031V48H79.5439V35.2031H81.2139ZM85.3271 35.2031V36.5918H75.4395V35.2031H85.3271ZM89.0186 47.0156L91.6641 38.4902H93.4043L89.5898 49.4678C89.502 49.7021 89.3848 49.9541 89.2383 50.2236C89.0977 50.499 88.916 50.7598 88.6934 51.0059C88.4707 51.252 88.2012 51.4512 87.8848 51.6035C87.5742 51.7617 87.2021 51.8408 86.7686 51.8408C86.6396 51.8408 86.4756 51.8232 86.2764 51.7881C86.0771 51.7529 85.9365 51.7236 85.8545 51.7002L85.8457 50.3818C85.8926 50.3877 85.9658 50.3936 86.0654 50.3994C86.1709 50.4111 86.2441 50.417 86.2852 50.417C86.6543 50.417 86.9678 50.3672 87.2256 50.2676C87.4834 50.1738 87.7002 50.0127 87.876 49.7842C88.0576 49.5615 88.2129 49.2539 88.3418 48.8613L89.0186 47.0156ZM87.0762 38.4902L89.5459 45.873L89.9678 47.5869L88.7988 48.1846L85.3008 38.4902H87.0762ZM96.498 40.3184V51.6562H94.8633V38.4902H96.3574L96.498 40.3184ZM102.905 43.166V43.3506C102.905 44.042 102.823 44.6836 102.659 45.2754C102.495 45.8613 102.255 46.3711 101.938 46.8047C101.628 47.2383 101.244 47.5752 100.787 47.8154C100.33 48.0557 99.8057 48.1758 99.2139 48.1758C98.6104 48.1758 98.0771 48.0762 97.6143 47.877C97.1514 47.6777 96.7588 47.3877 96.4365 47.0068C96.1143 46.626 95.8564 46.1689 95.6631 45.6357C95.4756 45.1025 95.3467 44.502 95.2764 43.834V42.8496C95.3467 42.1465 95.4785 41.5166 95.6719 40.96C95.8652 40.4033 96.1201 39.9287 96.4365 39.5361C96.7588 39.1377 97.1484 38.8359 97.6055 38.6309C98.0625 38.4199 98.5898 38.3145 99.1875 38.3145C99.7852 38.3145 100.315 38.4316 100.778 38.666C101.241 38.8945 101.631 39.2227 101.947 39.6504C102.264 40.0781 102.501 40.5908 102.659 41.1885C102.823 41.7803 102.905 42.4395 102.905 43.166ZM101.271 43.3506V43.166C101.271 42.6914 101.221 42.2461 101.121 41.8301C101.021 41.4082 100.866 41.0391 100.655 40.7227C100.45 40.4004 100.187 40.1484 99.8643 39.9668C99.542 39.7793 99.1582 39.6855 98.7129 39.6855C98.3027 39.6855 97.9453 39.7559 97.6406 39.8965C97.3418 40.0371 97.0869 40.2275 96.876 40.4678C96.665 40.7021 96.4922 40.9717 96.3574 41.2764C96.2285 41.5752 96.1318 41.8857 96.0674 42.208V44.4844C96.1846 44.8945 96.3486 45.2812 96.5596 45.6445C96.7705 46.002 97.0518 46.292 97.4033 46.5146C97.7549 46.7314 98.1973 46.8398 98.7305 46.8398C99.1699 46.8398 99.5479 46.749 99.8643 46.5674C100.187 46.3799 100.45 46.125 100.655 45.8027C100.866 45.4805 101.021 45.1113 101.121 44.6953C101.221 44.2734 101.271 43.8252 101.271 43.3506ZM106.737 45.4248L111.123 38.4902H112.758V48H111.123V41.0654L106.737 48H105.12V38.4902H106.737V45.4248ZM119.174 46.8398C119.561 46.8398 119.918 46.7607 120.246 46.6025C120.574 46.4443 120.844 46.2275 121.055 45.9521C121.266 45.6709 121.386 45.3516 121.415 44.9941H122.962C122.933 45.5566 122.742 46.0811 122.391 46.5674C122.045 47.0479 121.591 47.4375 121.028 47.7363C120.466 48.0293 119.848 48.1758 119.174 48.1758C118.459 48.1758 117.835 48.0498 117.302 47.7979C116.774 47.5459 116.335 47.2002 115.983 46.7607C115.638 46.3213 115.377 45.8174 115.201 45.249C115.031 44.6748 114.946 44.0684 114.946 43.4297V43.0605C114.946 42.4219 115.031 41.8184 115.201 41.25C115.377 40.6758 115.638 40.1689 115.983 39.7295C116.335 39.29 116.774 38.9443 117.302 38.6924C117.835 38.4404 118.459 38.3145 119.174 38.3145C119.918 38.3145 120.568 38.4668 121.125 38.7715C121.682 39.0703 122.118 39.4805 122.435 40.002C122.757 40.5176 122.933 41.1035 122.962 41.7598H121.415C121.386 41.3672 121.274 41.0127 121.081 40.6963C120.894 40.3799 120.636 40.1279 120.308 39.9404C119.985 39.7471 119.607 39.6504 119.174 39.6504C118.676 39.6504 118.257 39.75 117.917 39.9492C117.583 40.1426 117.316 40.4062 117.117 40.7402C116.924 41.0684 116.783 41.4346 116.695 41.8389C116.613 42.2373 116.572 42.6445 116.572 43.0605V43.4297C116.572 43.8457 116.613 44.2559 116.695 44.6602C116.777 45.0645 116.915 45.4307 117.108 45.7588C117.308 46.0869 117.574 46.3506 117.908 46.5498C118.248 46.7432 118.67 46.8398 119.174 46.8398ZM128.666 38.4902V48H127.031V38.4902H128.666ZM131.856 38.4902V39.8086H123.902V38.4902H131.856ZM135.214 45.4248L139.6 38.4902H141.234V48H139.6V41.0654L135.214 48H133.597V38.4902H135.214V45.4248ZM151.017 38.4902V48H149.391V38.4902H151.017ZM150.463 42.8584V44.1943C150.135 44.3174 149.801 44.4287 149.461 44.5283C149.127 44.6221 148.772 44.6982 148.397 44.7568C148.028 44.8096 147.627 44.8359 147.193 44.8359C146.443 44.8359 145.793 44.707 145.242 44.4492C144.691 44.1855 144.267 43.79 143.968 43.2627C143.669 42.7295 143.52 42.0586 143.52 41.25V38.4727H145.146V41.25C145.146 41.7773 145.225 42.2051 145.383 42.5332C145.541 42.8613 145.772 43.1045 146.077 43.2627C146.382 43.415 146.754 43.4912 147.193 43.4912C147.615 43.4912 148.011 43.4648 148.38 43.4121C148.755 43.3535 149.112 43.2773 149.452 43.1836C149.798 43.0898 150.135 42.9814 150.463 42.8584ZM160.087 42.6123V43.9307H155.06V42.6123H160.087ZM155.402 38.4902V48H153.776V38.4902H155.402ZM161.405 38.4902V48H159.771V38.4902H161.405ZM167.971 48.1758C167.309 48.1758 166.708 48.0645 166.169 47.8418C165.636 47.6133 165.176 47.2939 164.789 46.8838C164.408 46.4736 164.115 45.9873 163.91 45.4248C163.705 44.8623 163.603 44.2471 163.603 43.5791V43.21C163.603 42.4365 163.717 41.748 163.945 41.1445C164.174 40.5352 164.484 40.0195 164.877 39.5977C165.27 39.1758 165.715 38.8564 166.213 38.6396C166.711 38.4229 167.227 38.3145 167.76 38.3145C168.439 38.3145 169.025 38.4316 169.518 38.666C170.016 38.9004 170.423 39.2285 170.739 39.6504C171.056 40.0664 171.29 40.5586 171.442 41.127C171.595 41.6895 171.671 42.3047 171.671 42.9727V43.7021H164.569V42.375H170.045V42.252C170.021 41.8301 169.934 41.4199 169.781 41.0215C169.635 40.623 169.4 40.2949 169.078 40.0371C168.756 39.7793 168.316 39.6504 167.76 39.6504C167.391 39.6504 167.051 39.7295 166.74 39.8877C166.43 40.04 166.163 40.2686 165.94 40.5732C165.718 40.8779 165.545 41.25 165.422 41.6895C165.299 42.1289 165.237 42.6357 165.237 43.21V43.5791C165.237 44.0303 165.299 44.4551 165.422 44.8535C165.551 45.2461 165.735 45.5918 165.976 45.8906C166.222 46.1895 166.518 46.4238 166.863 46.5938C167.215 46.7637 167.613 46.8486 168.059 46.8486C168.633 46.8486 169.119 46.7314 169.518 46.4971C169.916 46.2627 170.265 45.9492 170.563 45.5566L171.548 46.3389C171.343 46.6494 171.082 46.9453 170.766 47.2266C170.449 47.5078 170.06 47.7363 169.597 47.9121C169.14 48.0879 168.598 48.1758 167.971 48.1758ZM183.642 46.374V41.4785C183.642 41.1035 183.565 40.7783 183.413 40.5029C183.267 40.2217 183.044 40.0049 182.745 39.8525C182.446 39.7002 182.077 39.624 181.638 39.624C181.228 39.624 180.867 39.6943 180.557 39.835C180.252 39.9756 180.012 40.1602 179.836 40.3887C179.666 40.6172 179.581 40.8633 179.581 41.127H177.955C177.955 40.7871 178.043 40.4502 178.219 40.1162C178.395 39.7822 178.646 39.4805 178.975 39.2109C179.309 38.9355 179.707 38.7188 180.17 38.5605C180.639 38.3965 181.16 38.3145 181.734 38.3145C182.426 38.3145 183.035 38.4316 183.562 38.666C184.096 38.9004 184.512 39.2549 184.811 39.7295C185.115 40.1982 185.268 40.7871 185.268 41.4961V45.9258C185.268 46.2422 185.294 46.5791 185.347 46.9365C185.405 47.2939 185.49 47.6016 185.602 47.8594V48H183.905C183.823 47.8125 183.759 47.5635 183.712 47.2529C183.665 46.9365 183.642 46.6436 183.642 46.374ZM183.923 42.2344L183.94 43.377H182.297C181.834 43.377 181.421 43.415 181.058 43.4912C180.694 43.5615 180.39 43.6699 180.144 43.8164C179.897 43.9629 179.71 44.1475 179.581 44.3701C179.452 44.5869 179.388 44.8418 179.388 45.1348C179.388 45.4336 179.455 45.7061 179.59 45.9521C179.725 46.1982 179.927 46.3945 180.196 46.541C180.472 46.6816 180.809 46.752 181.207 46.752C181.705 46.752 182.145 46.6465 182.525 46.4355C182.906 46.2246 183.208 45.9668 183.431 45.6621C183.659 45.3574 183.782 45.0615 183.8 44.7744L184.494 45.5566C184.453 45.8027 184.342 46.0752 184.16 46.374C183.979 46.6729 183.735 46.96 183.431 47.2354C183.132 47.5049 182.774 47.7305 182.358 47.9121C181.948 48.0879 181.485 48.1758 180.97 48.1758C180.325 48.1758 179.76 48.0498 179.273 47.7979C178.793 47.5459 178.418 47.209 178.148 46.7871C177.885 46.3594 177.753 45.8818 177.753 45.3545C177.753 44.8447 177.853 44.3965 178.052 44.0098C178.251 43.6172 178.538 43.292 178.913 43.0342C179.288 42.7705 179.739 42.5713 180.267 42.4365C180.794 42.3018 181.383 42.2344 182.033 42.2344H183.923ZM193.969 38.4902V39.835H189.574V48H187.948V38.4902H193.969ZM199.154 48.1758C198.492 48.1758 197.892 48.0645 197.353 47.8418C196.819 47.6133 196.359 47.2939 195.973 46.8838C195.592 46.4736 195.299 45.9873 195.094 45.4248C194.889 44.8623 194.786 44.2471 194.786 43.5791V43.21C194.786 42.4365 194.9 41.748 195.129 41.1445C195.357 40.5352 195.668 40.0195 196.061 39.5977C196.453 39.1758 196.898 38.8564 197.396 38.6396C197.895 38.4229 198.41 38.3145 198.943 38.3145C199.623 38.3145 200.209 38.4316 200.701 38.666C201.199 38.9004 201.606 39.2285 201.923 39.6504C202.239 40.0664 202.474 40.5586 202.626 41.127C202.778 41.6895 202.854 42.3047 202.854 42.9727V43.7021H195.753V42.375H201.229V42.252C201.205 41.8301 201.117 41.4199 200.965 41.0215C200.818 40.623 200.584 40.2949 200.262 40.0371C199.939 39.7793 199.5 39.6504 198.943 39.6504C198.574 39.6504 198.234 39.7295 197.924 39.8877C197.613 40.04 197.347 40.2686 197.124 40.5732C196.901 40.8779 196.729 41.25 196.605 41.6895C196.482 42.1289 196.421 42.6357 196.421 43.21V43.5791C196.421 44.0303 196.482 44.4551 196.605 44.8535C196.734 45.2461 196.919 45.5918 197.159 45.8906C197.405 46.1895 197.701 46.4238 198.047 46.5938C198.398 46.7637 198.797 46.8486 199.242 46.8486C199.816 46.8486 200.303 46.7314 200.701 46.4971C201.1 46.2627 201.448 45.9492 201.747 45.5566L202.731 46.3389C202.526 46.6494 202.266 46.9453 201.949 47.2266C201.633 47.5078 201.243 47.7363 200.78 47.9121C200.323 48.0879 199.781 48.1758 199.154 48.1758ZM211.204 42.6123V43.9307H206.177V42.6123H211.204ZM206.52 38.4902V48H204.894V38.4902H206.52ZM212.522 38.4902V48H210.888V38.4902H212.522ZM218.947 46.8398C219.334 46.8398 219.691 46.7607 220.02 46.6025C220.348 46.4443 220.617 46.2275 220.828 45.9521C221.039 45.6709 221.159 45.3516 221.188 44.9941H222.735C222.706 45.5566 222.516 46.0811 222.164 46.5674C221.818 47.0479 221.364 47.4375 220.802 47.7363C220.239 48.0293 219.621 48.1758 218.947 48.1758C218.232 48.1758 217.608 48.0498 217.075 47.7979C216.548 47.5459 216.108 47.2002 215.757 46.7607C215.411 46.3213 215.15 45.8174 214.975 45.249C214.805 44.6748 214.72 44.0684 214.72 43.4297V43.0605C214.72 42.4219 214.805 41.8184 214.975 41.25C215.15 40.6758 215.411 40.1689 215.757 39.7295C216.108 39.29 216.548 38.9443 217.075 38.6924C217.608 38.4404 218.232 38.3145 218.947 38.3145C219.691 38.3145 220.342 38.4668 220.898 38.7715C221.455 39.0703 221.892 39.4805 222.208 40.002C222.53 40.5176 222.706 41.1035 222.735 41.7598H221.188C221.159 41.3672 221.048 41.0127 220.854 40.6963C220.667 40.3799 220.409 40.1279 220.081 39.9404C219.759 39.7471 219.381 39.6504 218.947 39.6504C218.449 39.6504 218.03 39.75 217.69 39.9492C217.356 40.1426 217.09 40.4062 216.891 40.7402C216.697 41.0684 216.557 41.4346 216.469 41.8389C216.387 42.2373 216.346 42.6445 216.346 43.0605V43.4297C216.346 43.8457 216.387 44.2559 216.469 44.6602C216.551 45.0645 216.688 45.4307 216.882 45.7588C217.081 46.0869 217.348 46.3506 217.682 46.5498C218.021 46.7432 218.443 46.8398 218.947 46.8398ZM228.439 38.4902V48H226.805V38.4902H228.439ZM231.63 38.4902V39.8086H223.676V38.4902H231.63ZM237.694 43.8164H234.574L234.557 42.5156H237.105C237.609 42.5156 238.028 42.4658 238.362 42.3662C238.702 42.2666 238.957 42.1172 239.127 41.918C239.297 41.7188 239.382 41.4727 239.382 41.1797C239.382 40.9512 239.332 40.752 239.232 40.582C239.139 40.4062 238.995 40.2627 238.802 40.1514C238.608 40.0342 238.368 39.9492 238.081 39.8965C237.8 39.8379 237.469 39.8086 237.088 39.8086H235.005V48H233.379V38.4902H237.088C237.691 38.4902 238.233 38.543 238.714 38.6484C239.2 38.7539 239.613 38.915 239.953 39.1318C240.299 39.3428 240.562 39.6123 240.744 39.9404C240.926 40.2686 241.017 40.6553 241.017 41.1006C241.017 41.3877 240.958 41.6602 240.841 41.918C240.724 42.1758 240.551 42.4043 240.322 42.6035C240.094 42.8027 239.812 42.9668 239.479 43.0957C239.145 43.2188 238.761 43.2979 238.327 43.333L237.694 43.8164ZM237.694 48H233.985L234.794 46.6816H237.694C238.146 46.6816 238.521 46.626 238.819 46.5146C239.118 46.3975 239.341 46.2334 239.487 46.0225C239.64 45.8057 239.716 45.5479 239.716 45.249C239.716 44.9502 239.64 44.6953 239.487 44.4844C239.341 44.2676 239.118 44.1035 238.819 43.9922C238.521 43.875 238.146 43.8164 237.694 43.8164H235.225L235.242 42.5156H238.327L238.916 43.0078C239.438 43.0488 239.88 43.1777 240.243 43.3945C240.606 43.6113 240.882 43.8867 241.069 44.2207C241.257 44.5488 241.351 44.9062 241.351 45.293C241.351 45.7383 241.266 46.1309 241.096 46.4707C240.932 46.8105 240.691 47.0947 240.375 47.3232C240.059 47.5459 239.675 47.7158 239.224 47.833C238.772 47.9443 238.263 48 237.694 48ZM243.1 43.3506V43.1484C243.1 42.4629 243.199 41.8271 243.398 41.2412C243.598 40.6494 243.885 40.1367 244.26 39.7031C244.635 39.2637 245.089 38.9238 245.622 38.6836C246.155 38.4375 246.753 38.3145 247.415 38.3145C248.083 38.3145 248.684 38.4375 249.217 38.6836C249.756 38.9238 250.213 39.2637 250.588 39.7031C250.969 40.1367 251.259 40.6494 251.458 41.2412C251.657 41.8271 251.757 42.4629 251.757 43.1484V43.3506C251.757 44.0361 251.657 44.6719 251.458 45.2578C251.259 45.8438 250.969 46.3564 250.588 46.7959C250.213 47.2295 249.759 47.5693 249.226 47.8154C248.698 48.0557 248.101 48.1758 247.433 48.1758C246.765 48.1758 246.164 48.0557 245.631 47.8154C245.098 47.5693 244.641 47.2295 244.26 46.7959C243.885 46.3564 243.598 45.8438 243.398 45.2578C243.199 44.6719 243.1 44.0361 243.1 43.3506ZM244.726 43.1484V43.3506C244.726 43.8252 244.781 44.2734 244.893 44.6953C245.004 45.1113 245.171 45.4805 245.394 45.8027C245.622 46.125 245.906 46.3799 246.246 46.5674C246.586 46.749 246.981 46.8398 247.433 46.8398C247.878 46.8398 248.268 46.749 248.602 46.5674C248.941 46.3799 249.223 46.125 249.445 45.8027C249.668 45.4805 249.835 45.1113 249.946 44.6953C250.063 44.2734 250.122 43.8252 250.122 43.3506V43.1484C250.122 42.6797 250.063 42.2373 249.946 41.8213C249.835 41.3994 249.665 41.0273 249.437 40.7051C249.214 40.377 248.933 40.1191 248.593 39.9316C248.259 39.7441 247.866 39.6504 247.415 39.6504C246.97 39.6504 246.577 39.7441 246.237 39.9316C245.903 40.1191 245.622 40.377 245.394 40.7051C245.171 41.0273 245.004 41.3994 244.893 41.8213C244.781 42.2373 244.726 42.6797 244.726 43.1484Z" fill="white"/>
<circle cx="30" cy="30" r="29.5" stroke="white"/>
<path d="M63.4629 9.47738L61.0727 6.39733L59.0648 4.85978L59.0462 3.60246L58.0941 3L56.8992 5.24617L55.0934 4.21146L54.4683 4.77293L55.1707 6.01747L44.8019 14.7527L28.4723 21.7827L23.5737 22.7406L22.4212 23.2625L19.3786 26.7376L18.115 30.4994L17.8183 32.5789L18.4735 33.8203L18.5428 33.3668L19.7098 29.6155L18.5961 37.191L17.3328 40.6057L15 51H17.1181L16.4777 50.0595L17.5902 45.0933L21.7909 37.681L21.0183 40.4675L24.3004 51H26.5324L25.599 49.9502L24.0332 45.8234L23.3717 39.6256L25.7773 34.7294L27.2183 33.4871L33.8938 33.4959L35.0746 34.536L32.9159 48.7357L33.002 51H35.1263L34.3429 49.9602L34.6351 44.5537L37.8939 34.6567L38.2939 34.6592L45.446 51H47.5933L46.5025 50.0155L44.5581 45.3689L41.5097 33.645L42.3178 27.6303L41.9221 25.9524L42.2942 24.7718L56.1693 10.8516L58.283 10.4868L63.6209 12.2031L64 10.8734L63.4629 9.47738Z" fill="white"/>
</svg>
